<svg width="172" height="42" viewBox="0 0 172 42" fill="none" xmlns="http://www.w3.org/2000/svg">
<g clip-path="url(#clip0_5_4)">
<path fill-rule="evenodd" clip-rule="evenodd" d="M0.0445557 23.786L0.0770438 24.5429L0.174508 25.3159L0.304461 26.0728L0.466901 26.862L0.678074 27.6511L0.905491 28.4402L1.1654 29.2293L1.47403 29.9862L1.79892 30.7753L2.15628 31.5483L2.54614 32.3052L2.96849 33.046L3.40708 33.7868L3.86191 34.5115L4.36548 35.1879L4.90153 35.8965L5.43759 36.5406L6.02237 37.1687L6.59092 37.7646L7.20819 38.3443L7.84171 38.8758L8.49147 39.3911L9.17372 39.8581L9.87222 40.2607L10.5707 40.6633L11.2855 41.0015L12.0327 41.3075L12.7962 41.5491L13.5596 41.7423L14.3231 41.8712L15.1191 41.9839L15.915 42L16.711 41.9839L17.5069 41.8712L18.2704 41.7423L19.0501 41.5491L19.8136 41.3075L20.5283 41.0015L21.2593 40.6633L21.9903 40.2607L22.6888 39.8581L23.3548 39.3911L24.0046 38.8758L24.6381 38.3443L25.2716 37.7646L25.8564 37.1687L26.4412 36.5406L26.9935 35.8965L27.5133 35.1879L28.0168 34.5115L28.5042 33.7868L28.959 33.046L29.3813 32.3052L29.7712 31.5483L30.1286 30.7753L30.4535 29.9862L30.7621 29.2293L31.0382 28.4402L31.2657 27.6511L31.4606 26.862L31.623 26.0728L31.7692 25.3159L31.8667 24.5429L31.8992 23.786V5.50766L26.7661 12.6741V12.8351V13.3827V14.204V15.283V16.5713V18.0046V19.5506V21.1771V22.8198V24.4302V25.9762V27.3773V28.6173V29.648V30.4049V30.8719L26.7336 31.4034L26.7011 31.9026L26.6361 32.4179L26.5386 32.9011L26.4249 33.4164L26.2787 33.8834L26.1163 34.3666L25.9051 34.8014L25.6939 35.2684L25.4503 35.7032L25.2066 36.1219L24.9305 36.5406L24.6218 36.9271L24.297 37.2975L23.9721 37.6679L23.5985 38.0222L23.2248 38.3604L22.8187 38.6664L22.4289 38.9724L22.0065 39.2784L21.5679 39.536L21.1131 39.7615L20.6583 39.987L20.1547 40.1963L19.6674 40.3735L19.1801 40.5184L18.6603 40.6633L18.1567 40.7761L17.6206 40.8727L17.0846 40.9371L16.5323 40.9693H15.9475H15.4277L14.8591 40.9371L14.3231 40.8727L13.787 40.7761L13.2835 40.6633L12.7637 40.5184L12.2439 40.3735L11.7565 40.1963L11.2855 39.987L10.8306 39.7615L10.3758 39.536L9.93719 39.2784L9.51485 38.9724L9.10875 38.6664L8.71889 38.3604L8.34527 38.0222L7.98791 37.6679L7.64678 37.2975L7.33814 36.9271L7.01326 36.5406L6.73711 36.1219L6.49345 35.7032L6.24979 35.2684L6.02237 34.8014L5.82744 34.3666L5.665 33.8834L5.53505 33.4164L5.42134 32.9011L5.32388 32.4179L5.24266 31.9026L5.21017 31.4034L5.17768 30.8719V29.7124V28.5529V27.3934L5.21017 26.2661V25.1227V24.0115L5.22641 22.8842V21.773V20.6457V19.5345L5.24266 18.3911V17.2638V16.1365V14.977V13.8175V12.6741L0.0445557 5.50766L0.0445557 23.786ZM31.2494 5.50766H18.0592L17.8805 5.57208L17.6856 5.6687L17.5232 5.76533L17.3607 5.87806L17.0846 6.11962L16.8409 6.37729L16.6622 6.61886L16.4836 6.92484L16.3374 7.19861L16.2561 7.47238L16.1587 7.76226L16.0775 8.03603L16.0287 8.26149L16.0125 8.47085L15.9962 8.77683V8.88956L15.9475 8.77683L15.9313 8.47085L15.915 8.26149L15.8663 8.03603L15.7851 7.76226L15.7038 7.47238L15.5901 7.19861L15.4602 6.92484L15.2815 6.61886L15.0703 6.37729L14.8429 6.11962L14.5668 5.87806L14.4206 5.76533L14.2419 5.6687L14.0632 5.57208L13.8845 5.50766H0.759295L5.89242 12.6741H13.8845V20.9517L13.917 31.7093L14.0145 32.0314L14.1607 32.3535L14.2581 32.5146L14.3556 32.6434L14.4693 32.7883L14.583 32.9172L14.7129 33.046L14.8591 33.1587L15.0378 33.2554L15.2003 33.3198L15.3627 33.4003L15.5576 33.4325L15.7526 33.4647L15.9475 33.4969L16.1912 33.4647L16.3861 33.4325L16.581 33.4003L16.7759 33.3198L16.9384 33.2554L17.1008 33.1426L17.247 33.046L17.377 32.9172L17.5232 32.7883L17.6369 32.6434L17.7343 32.5146L17.8318 32.3535L17.9293 32.1925L17.9943 32.0314L18.043 31.8704L18.0917 31.7093L18.0592 20.9517V12.6741H26.1163L31.2494 5.50766Z" fill="white"/>
<path d="M145.348 40.5667L145.445 40.7761L145.543 40.9371L145.591 41.0982L145.656 41.227L145.673 41.3397V41.4525L145.624 41.5491L145.559 41.6135L145.461 41.6779L145.348 41.7101L145.202 41.7423L145.007 41.7745L144.812 41.8067H144.552H144.243H143.918H143.626H143.366H143.139L142.96 41.7745H142.668L142.424 41.7101L142.343 41.694L142.261 41.6457L142.213 41.6135L142.148 41.5652L142.083 41.4525L142.018 41.3236L138.931 35.7998L135.878 41.3236L135.813 41.4525L135.715 41.5652L135.666 41.6135L135.601 41.6457L135.536 41.694L135.439 41.7101L135.195 41.7745H134.87L134.692 41.8067H134.481H134.253H133.961H133.668H133.376H133.148L132.954 41.7745L132.791 41.7423L132.661 41.7101L132.547 41.6779L132.466 41.6135L132.418 41.5491L132.401 41.4525V41.3397L132.418 41.227L132.466 41.0982L132.531 40.9371L132.612 40.7761L132.742 40.5667L136.657 33.8995L133.002 27.6028L132.905 27.3934L132.824 27.2324L132.742 27.0713L132.694 26.9103L132.677 26.8137V26.6848L132.71 26.6204L132.775 26.5399L132.872 26.4916L132.97 26.4271L133.116 26.3949L133.311 26.3788H133.506L133.766 26.3627H134.058H134.416H134.692H134.952H135.147L135.358 26.3788L135.65 26.411L135.894 26.4594L135.991 26.4916L136.072 26.5238L136.137 26.556L136.202 26.6043L136.267 26.717L136.332 26.8459L139.224 31.9026L142.018 26.8459L142.083 26.717L142.148 26.6043L142.213 26.556L142.261 26.5238L142.343 26.4916L142.424 26.4594L142.635 26.411L142.927 26.3788L143.106 26.3627H143.317H143.561H143.821H144.113H144.389L144.617 26.3788H144.812L144.974 26.411L145.137 26.4271L145.234 26.4916L145.315 26.5399L145.364 26.6204L145.413 26.717V26.8137L145.397 26.9425L145.348 27.0713L145.283 27.2324L145.202 27.3934L145.104 27.6028L141.465 33.8512L145.348 40.5667ZM130.777 40.5023V40.6795V40.8244L130.744 40.9693V41.0982L130.696 41.3075L130.647 41.4686L130.582 41.5974L130.484 41.6779L130.387 41.7262L130.29 41.7423H122.07L121.859 41.7262L121.68 41.694L121.518 41.6135L121.372 41.5008L121.307 41.4525L121.242 41.3719L121.193 41.3075L121.16 41.2109L121.112 41.0982V40.9854L121.079 40.8727V40.76V27.4095V27.2807L121.112 27.1679V27.0713L121.16 26.9747L121.193 26.8781L121.242 26.7814L121.307 26.717L121.372 26.6526L121.518 26.556L121.68 26.4916L121.859 26.4271H122.07H130.225H130.338L130.436 26.4916L130.468 26.5238L130.517 26.556L130.549 26.6204L130.582 26.6848L130.647 26.862L130.679 27.0713L130.696 27.2002V27.3451L130.712 27.4739V27.6672V27.8121L130.696 27.9571V28.1181L130.679 28.2147L130.647 28.4402L130.582 28.6012L130.517 28.714L130.436 28.8106L130.338 28.8428L130.225 28.875H124.393V32.6112H129.331L129.429 32.6273L129.542 32.6756L129.624 32.7561L129.689 32.885L129.753 33.0299L129.786 33.2393L129.802 33.3681L129.818 33.4969V33.6258V33.8029V33.964V34.1089L129.802 34.2538L129.786 34.3666L129.753 34.5598L129.689 34.737L129.624 34.8336L129.542 34.9141L129.429 34.9624L129.331 34.9946H124.393V39.3106H130.29H130.387L130.484 39.375L130.533 39.4072L130.582 39.4555L130.614 39.5038L130.647 39.5844L130.696 39.7454L130.744 39.9387V40.0675L130.777 40.1963V40.3413V40.5023ZM119.162 27.6994L119.146 27.8604V28.0215L119.13 28.1664V28.2952L119.097 28.5207L119.032 28.6817L118.967 28.8106L118.87 28.9072L118.837 28.9394L118.772 28.9555L118.708 28.9716H118.659H114.582V41.3236L114.565 41.3719V41.4364L114.517 41.4686L114.484 41.5169L114.452 41.5813L114.37 41.6135L114.305 41.6457L114.224 41.6779L113.997 41.7262L113.704 41.7745L113.542 41.7906H113.347L113.12 41.8067H112.908H112.665L112.47 41.7906H112.275L112.096 41.7745L111.82 41.7262L111.593 41.6779L111.511 41.6457L111.43 41.6135L111.381 41.5813L111.316 41.5169L111.284 41.4686L111.251 41.4364L111.235 41.3719V41.3236V28.9716H107.142H107.077L107.028 28.9555L106.979 28.9394L106.931 28.9072L106.849 28.8106L106.784 28.6817L106.719 28.5207L106.687 28.2952L106.671 28.1664L106.654 28.0215V27.8604V27.6994V27.5383V27.3773L106.671 27.2324L106.687 27.1035L106.719 26.8781L106.784 26.717L106.849 26.5882L106.931 26.4916L106.979 26.4755L107.028 26.4271H107.077H107.142H118.659H118.772L118.87 26.4916L118.967 26.5882L119.032 26.717L119.097 26.8781L119.13 27.1035V27.2324L119.146 27.3773V27.5383L119.162 27.6994ZM104.721 41.3397L104.705 41.388V41.4525L104.673 41.5008L104.624 41.5491L104.591 41.5813L104.51 41.6457H104.445L104.38 41.694L104.137 41.7423L103.86 41.7745L103.698 41.7906H103.487L103.292 41.8067H103.032H102.821L102.626 41.7906H102.415L102.236 41.7745L101.96 41.7423L101.749 41.694L101.651 41.6457H101.603L101.521 41.5813L101.489 41.5491L101.456 41.5008L101.424 41.4525V41.388V41.3397V33.2715V33.046V32.8045V32.579V32.3696V32.1442V31.9348L101.456 31.7738L101.473 31.5805H101.424L101.326 31.7738L101.196 31.967L101.034 32.1764L100.888 32.4179L100.725 32.6595L100.563 32.9172L100.4 33.1748L100.206 33.4164L94.5201 41.3397L94.4226 41.4686L94.3252 41.5813L94.1952 41.6457L94.049 41.7262L93.8379 41.7745L93.6104 41.8067H93.4967H93.3505H93.1718H92.9932H92.7495H92.5546H92.3596L92.1972 41.7745L91.9211 41.7423L91.7099 41.694L91.6449 41.6457L91.5799 41.6135L91.5312 41.5813L91.4825 41.5491L91.4337 41.4364L91.4175 41.3236V26.8459V26.7653L91.4337 26.717L91.4825 26.6687L91.5149 26.6204L91.5474 26.5882L91.6124 26.5399L91.6936 26.5077L91.7911 26.4755L92.0185 26.411L92.2784 26.3788H92.4571L92.652 26.3627H92.8632H93.0906H93.3343H93.5292L93.7241 26.3788H93.8866L94.179 26.411L94.4064 26.4755L94.4876 26.5077L94.5526 26.5399L94.6176 26.5882L94.6501 26.6204L94.6825 26.6687L94.7313 26.717V26.7653L94.7475 26.8459V34.9463V35.1396V35.3489L94.7313 35.5422V35.7515V35.9609L94.715 36.1702V36.3796L94.6825 36.589H94.715L94.8125 36.4118L94.9424 36.1863L95.1049 35.9609L95.2673 35.7193L95.4298 35.4778L95.6085 35.2523L95.7709 34.9946L95.9333 34.7531L101.619 26.8137L101.716 26.717L101.814 26.6043L101.927 26.5238L102.074 26.4755L102.285 26.411L102.496 26.3788L102.626 26.3627H102.805H102.967H103.162H103.373H103.568L103.763 26.3788H103.925L104.185 26.411L104.413 26.4755L104.494 26.5077L104.559 26.5399L104.608 26.5882L104.64 26.6204L104.689 26.6687L104.705 26.7331V26.7814L104.721 26.8459V41.3397ZM87.8438 41.3397V41.388L87.8275 41.4525L87.8113 41.5008L87.7788 41.5491L87.7463 41.5813L87.6651 41.6457H87.5839L87.5189 41.694L87.2915 41.7423L86.9991 41.7745L86.8204 41.7906H86.6417L86.4143 41.8067H86.2031H85.9595L85.7483 41.7906H85.5371L85.3747 41.7745L85.1148 41.7423L84.8874 41.694L84.7899 41.6457H84.7249L84.66 41.5813L84.6112 41.5491L84.595 41.5008L84.5462 41.4525V41.388L84.53 41.3397V29.0038H81.0375L80.9401 29.648L80.8426 30.2922L80.7451 30.9041L80.6802 31.5161L80.5989 32.0959L80.5015 32.6595L80.404 33.2071L80.3228 33.7224L80.2253 34.2216L80.1279 34.6887L80.0304 35.1557L79.9167 35.5905L79.8192 36.0092L79.738 36.4118L79.6243 36.7983L79.5268 37.2009L79.3157 37.8612L79.0882 38.4893L78.9745 38.7952L78.8446 39.069L78.7309 39.3106L78.6009 39.536L78.471 39.7937L78.341 39.987L78.2111 40.1802L78.0649 40.3735L77.9187 40.5506L77.7887 40.7117L77.6263 40.8566L77.4801 41.0015L77.3176 41.1304L77.1389 41.2592L76.9927 41.3719L76.7978 41.4686L76.6029 41.5652L76.4242 41.6457L76.2455 41.694L76.0343 41.7423L75.6282 41.839L75.1897 41.9034L74.7023 41.9517H74.1988H74.0363L73.8901 41.9034L73.8089 41.8712L73.7602 41.839L73.7114 41.7745L73.6627 41.7262L73.6302 41.6457L73.5815 41.5813L73.549 41.4686L73.5328 41.3558L73.5165 41.227V41.0821L73.5003 40.9371V40.76V40.5023V40.2929L73.5165 40.1158V39.9225L73.549 39.6488L73.614 39.4555L73.6465 39.375L73.679 39.3106L73.7277 39.2462L73.7764 39.214L73.8901 39.1817L74.0201 39.1495H74.1988L74.4099 39.1173L74.6049 39.0851L74.7836 39.0046L74.946 38.9241L75.1247 38.7952L75.2871 38.6181L75.4496 38.4248L75.6282 38.1833L75.7907 37.9095L75.9369 37.5713L76.1156 37.1848L76.2618 36.7661L76.4242 36.283L76.5704 35.7193L76.7328 35.0913L76.7978 34.7692L76.8628 34.431L76.944 34.0606L77.009 33.6741L77.0902 33.2715L77.1552 32.8367L77.2364 32.4018L77.3176 31.9348L77.3988 31.4678L77.4638 30.9686L77.5288 30.4532L77.61 29.9057L77.6912 29.3259L77.7562 28.7462L77.8374 28.1342L77.9187 27.5222L77.9674 27.2485L78.0161 27.0069L78.0486 26.8942L78.1136 26.8137L78.1623 26.7331L78.2111 26.6687L78.276 26.6204L78.341 26.556L78.406 26.5238L78.5034 26.4916L78.6659 26.4271H78.8771H86.9016H87.1291L87.3077 26.4916L87.389 26.5238L87.4539 26.556L87.5352 26.6204L87.6164 26.6687L87.6651 26.7331L87.7138 26.8137L87.7463 26.8942L87.7951 26.9747L87.8275 27.1679L87.8438 27.4095V41.3397ZM69.5692 34.0767L69.5367 33.4969L69.5042 32.9172L69.4555 32.3857L69.358 31.8704L69.3093 31.6449L69.2443 31.3873L69.1794 31.1779L69.0819 30.9525L69.0007 30.7592L68.887 30.5498L68.7895 30.3727L68.6758 30.1794L68.5458 30.0184L68.4159 29.8574L68.2534 29.7124L68.091 29.5514L67.9286 29.4225L67.7661 29.3259L67.5874 29.1971L67.3763 29.1005L67.1651 29.0038L66.9539 28.9394L66.7103 28.875L66.4666 28.8106L66.2067 28.7784L65.9305 28.7301L65.6544 28.714H65.362H65.0534L64.761 28.7301L64.4848 28.7784L64.2249 28.8267L63.9813 28.875L63.7538 28.9555L63.5264 29.0521L63.299 29.1327L63.1041 29.2615L62.9091 29.3742L62.7467 29.5031L62.568 29.648L62.4056 29.7929L62.2431 29.9701L62.1132 30.115L61.9832 30.2922L61.8533 30.4693L61.7396 30.6787L61.6421 30.888L61.5446 31.0813L61.4634 31.3068L61.3984 31.5161L61.3172 31.7416L61.2685 31.967L61.1873 32.4824L61.1223 32.9655L61.0898 33.4969L61.0573 34.0284L61.0898 34.6403L61.1223 35.2201L61.1873 35.7515L61.2685 36.283L61.3172 36.5406L61.3822 36.75L61.4472 36.9916L61.5122 37.217L61.6096 37.4103L61.7233 37.6035L61.8208 37.7968L61.9507 37.99L62.0645 38.1672L62.2106 38.3121L62.3568 38.4732L62.503 38.602L62.6655 38.7469L62.8604 38.8597L63.0553 38.9724L63.234 39.069L63.4452 39.1495L63.6726 39.2301L63.9 39.3106L64.1437 39.3589L64.4036 39.3911L64.6635 39.4072L64.9721 39.4394L65.2645 39.4555L65.5569 39.4394L65.8493 39.4072L66.1255 39.375L66.3854 39.3428L66.6453 39.2784L66.8727 39.214L67.1001 39.1173L67.3113 39.0046L67.5062 38.908L67.7174 38.7952L67.8636 38.6503L68.0585 38.5215L68.2047 38.3604L68.3834 38.1994L68.5133 38.0383L68.6433 37.8612L68.757 37.6679L68.8707 37.4586L68.9844 37.2814L69.0819 37.0721L69.1469 36.8466L69.2281 36.6212L69.3093 36.3796L69.358 36.138L69.4555 35.6549L69.5042 35.1396L69.5367 34.6081L69.5692 34.0767ZM73.0454 33.8995V34.3827L73.013 34.8336L72.9805 35.2845L72.9155 35.7032L72.8505 36.138L72.753 36.5406L72.6556 36.9433L72.5256 37.3137L72.4119 37.684L72.2657 38.0383L72.1033 38.3604L71.9084 38.6986L71.7134 39.0046L71.5023 39.3106L71.2748 39.6005L71.0474 39.8742L70.7875 40.1158L70.5114 40.3413L70.219 40.5667L69.9266 40.7922L69.6179 40.9693L69.2768 41.1626L68.9195 41.3236L68.5783 41.4686L68.1885 41.5974L67.7986 41.7101L67.3925 41.7906L66.9702 41.8712L66.5478 41.9195L66.093 41.9839L65.6381 42H65.1671H64.696L64.2412 41.9839L63.8026 41.9517L63.3802 41.8873L62.9741 41.839L62.568 41.7423L62.1944 41.6457L61.837 41.5491L61.4797 41.4202L61.1548 41.2914L60.8461 41.1143L60.5213 40.9532L60.2451 40.7761L59.969 40.5667L59.7091 40.3413L59.4654 40.1158L59.238 39.8742L59.0268 39.6166L58.8156 39.3106L58.6532 39.0368L58.4745 38.7147L58.3121 38.3926L58.1659 38.0383L58.0359 37.684L57.9385 37.2975L57.841 36.8949L57.776 36.4923L57.6948 36.0736L57.6461 35.6066L57.5973 35.1557L57.5811 34.6725L57.5648 34.1894L57.5811 33.7224L57.5973 33.2715L57.6461 32.8367L57.6948 32.4179L57.776 31.9992L57.8572 31.5966L57.9709 31.2101L58.0847 30.8558L58.2146 30.4693L58.3608 30.115L58.5232 29.7768L58.7019 29.4548L58.8969 29.1488L59.108 28.875L59.3354 28.5851L59.5791 28.3114L59.839 28.0537L60.1152 27.8121L60.3913 27.6028L60.6999 27.3934L61.0086 27.2002L61.3497 27.023L61.6908 26.862L62.0482 26.717L62.4381 26.5882L62.8279 26.4755L63.234 26.3788L63.6401 26.2983L64.0787 26.2339L64.5173 26.2017L64.9884 26.1695H65.4595H65.9305L66.3854 26.1856L66.8077 26.2178L67.1976 26.2822L67.6199 26.3305L67.9935 26.411L68.3834 26.5077L68.7408 26.6204L69.0981 26.7492L69.4393 26.8781L69.7479 27.0391L70.0403 27.2002L70.3327 27.3934L70.6088 27.6028L70.8687 27.8121L71.1124 28.0376L71.3561 28.2952L71.5672 28.5529L71.7622 28.8267L71.9408 29.1166L72.1358 29.4225L72.282 29.7607L72.4282 30.115L72.5581 30.4532L72.6556 30.8236L72.7855 31.2262L72.8505 31.6449L72.9155 32.0475L72.9805 32.4985L73.013 32.9494L73.0454 33.4164V33.8995ZM54.7871 41.3397V41.388L54.7709 41.4525L54.7546 41.5008L54.7059 41.5491L54.6572 41.5813L54.6084 41.6457H54.5272L54.4297 41.694L54.2186 41.7423L53.9424 41.7745L53.7637 41.7906H53.5688L53.3576 41.8067H53.1302H52.9028L52.7079 41.7906H52.4967L52.318 41.7745L52.0419 41.7423L51.8307 41.694L51.7332 41.6457H51.652L51.587 41.5813L51.5545 41.5491L51.5058 41.5008L51.4896 41.4525L51.4733 41.388L51.4571 41.3397V29.036H45.3818V41.3397L45.3655 41.388L45.3493 41.4525L45.3331 41.5008L45.2843 41.5491L45.2518 41.5813L45.1869 41.6457H45.1056L45.0244 41.694L44.797 41.7423L44.5209 41.7745L44.3584 41.7906H44.1635L43.9523 41.8067H43.7249H43.4812L43.2701 41.7906H43.0751L42.9127 41.7745L42.6203 41.7423L42.3929 41.694L42.3117 41.6457H42.2304L42.1817 41.5813L42.133 41.5491L42.0842 41.5008V41.4525L42.0518 41.388V41.3397V27.4095V27.2807L42.0842 27.1679V27.0713L42.133 26.9747L42.1655 26.8942L42.198 26.8137L42.2629 26.7331L42.3117 26.6687L42.3929 26.6204L42.4579 26.556L42.5553 26.5238L42.6203 26.4916L42.8152 26.4271H43.0426H53.8287H54.0561L54.2348 26.4916L54.316 26.5238L54.3972 26.556L54.4785 26.6204L54.5272 26.6687L54.5759 26.7331L54.6409 26.8137L54.7059 26.8942V26.9747L54.7709 27.1679L54.7871 27.4095V41.3397Z" fill="white"/>
<path d="M170.023 0.611963L170.006 0.917945L169.958 1.24003L169.876 1.54601L169.779 1.85199L169.714 1.99693L169.633 2.15798L169.568 2.28681L169.47 2.41564L169.357 2.54448L169.243 2.67331L169.129 2.78604L168.999 2.89877L168.853 3.0115L168.723 3.12423L168.544 3.20475L168.382 3.30138L168.187 3.39801L168.008 3.47853L167.813 3.55905L167.586 3.63957L167.359 3.68788L167.115 3.7362L166.887 3.80061L166.595 3.83282L166.335 3.88113H166.043L165.75 3.91334H165.442L164.841 3.88113L164.288 3.83282L164.028 3.80061L163.785 3.7523L163.541 3.70399L163.314 3.65567L162.908 3.52684L162.534 3.34969L162.372 3.26917L162.193 3.17255L162.047 3.07592L161.9 2.96319L161.771 2.86656L161.641 2.75383L161.527 2.625L161.413 2.49617L161.332 2.36733L161.251 2.22239L161.17 2.09356L161.105 1.93252L160.991 1.62653L160.91 1.30445L160.861 0.950153L160.845 0.611963V0.515337L160.861 0.434816L160.877 0.354294L160.91 0.305982L160.958 0.257669L161.007 0.22546L161.072 0.161043L161.17 0.128834L161.348 0.0644172L161.608 0.0322086L161.754 0.0161043L161.917 0H162.112H162.307H162.502H162.68L162.843 0.0161043L162.973 0.0322086L163.216 0.0644172L163.379 0.144939L163.444 0.177147L163.509 0.22546L163.541 0.273773L163.574 0.322086L163.622 0.434816L163.639 0.579755V0.740797L163.671 0.869632L163.704 0.982362L163.752 1.1112L163.834 1.24003L163.899 1.35276L164.012 1.46549L164.11 1.56212L164.24 1.62653L164.37 1.72316L164.532 1.80368L164.678 1.85199L164.857 1.90031L165.052 1.94862L165.247 1.96472L165.442 1.98083L165.653 1.96472L165.832 1.94862L166.01 1.90031L166.173 1.85199L166.335 1.80368L166.498 1.72316L166.628 1.65874L166.757 1.56212L166.855 1.46549L166.952 1.35276L167.034 1.24003L167.099 1.1434L167.131 0.982362L167.18 0.869632L167.212 0.708589V0.56365L167.229 0.434816L167.261 0.305982L167.294 0.273773L167.342 0.22546L167.391 0.177147L167.456 0.144939L167.651 0.0644172L167.846 0.0322086L167.992 0.0161043L168.138 0H168.284H168.479H168.707H168.902L169.064 0.0161043L169.227 0.0322086L169.486 0.0644172L169.714 0.128834L169.779 0.161043L169.86 0.22546L169.909 0.257669L169.958 0.305982L169.974 0.354294L170.006 0.434816V0.515337L170.023 0.611963ZM171.956 19.615V19.6794L171.923 19.7278L171.891 19.7761L171.858 19.8244L171.826 19.8566L171.761 19.9049L171.696 19.9371L171.598 19.9693L171.387 20.0176L171.078 20.0498L170.916 20.0821H170.721H170.51H170.282H170.055H169.844H169.649L169.47 20.0498L169.194 20.0176L168.967 19.9693L168.902 19.9371L168.82 19.9049L168.772 19.8566L168.707 19.8244L168.674 19.7761L168.658 19.7278L168.642 19.6794V19.615V11.5468V11.3213V11.0798V10.8704L168.658 10.6449V10.4356L168.674 10.2262V10.033L168.691 9.85583H168.658L168.577 10.033L168.447 10.2423L168.284 10.4678L168.138 10.6933L167.976 10.9348L167.781 11.1925L167.618 11.4502L167.44 11.6917L161.754 19.615L161.657 19.7439L161.543 19.8566L161.413 19.9371L161.267 20.0015L161.088 20.0337L160.845 20.0821H160.715H160.568H160.406H160.227H159.967H159.773H159.578L159.431 20.0498L159.139 20.0176L158.96 19.9693L158.863 19.9371L158.814 19.8888L158.749 19.8566L158.717 19.8244L158.668 19.7117L158.635 19.5989V5.12117L158.668 5.05675L158.684 4.99233L158.7 4.96012L158.733 4.8957L158.765 4.8635L158.847 4.83129L158.912 4.79908L159.009 4.75077L159.236 4.70245L159.513 4.67025H159.708L159.886 4.63804H160.097H160.325H160.552H160.763L160.958 4.67025H161.121L161.397 4.70245L161.624 4.75077L161.706 4.79908L161.787 4.83129L161.836 4.8635L161.9 4.8957L161.933 4.96012L161.965 4.99233V5.05675V5.12117V13.2377V13.4149V13.6242V13.8175V14.0429V14.2362L161.933 14.4456V14.6549L161.917 14.8643H161.965L162.063 14.671L162.193 14.4617L162.323 14.2362L162.502 13.9946L162.664 13.7531L162.826 13.5276L162.989 13.2699L163.184 13.0284L168.853 5.10506L168.95 4.99233L169.048 4.8796L169.162 4.79908L169.324 4.75077L169.519 4.70245L169.73 4.67025L169.876 4.63804H170.023H170.185H170.38H170.624H170.818L171.013 4.67025H171.16L171.436 4.70245L171.631 4.75077L171.712 4.79908L171.777 4.83129L171.842 4.8635L171.874 4.8957L171.923 4.96012V5.00843L171.956 5.05675V5.12117V19.615ZM155.094 19.615V19.6794L155.062 19.7278L155.046 19.7761L155.013 19.8244L154.964 19.8566L154.899 19.9049L154.834 19.9371L154.737 19.9693L154.509 20.0176L154.217 20.0498L154.055 20.0821H153.876H153.649H153.421H153.194H152.983H152.788L152.625 20.0498L152.333 20.0176L152.105 19.9693L152.04 19.9371L151.959 19.9049L151.91 19.8566L151.845 19.8244L151.829 19.7761L151.797 19.7278L151.78 19.6794V19.615V11.5468V11.3213V11.0798L151.797 10.8704V10.6449V10.4356L151.813 10.2262V10.033L151.829 9.85583H151.813L151.699 10.033L151.569 10.2423L151.423 10.4678L151.277 10.6933L151.114 10.9348L150.952 11.1925L150.757 11.4502L150.562 11.6917L144.877 19.615L144.795 19.7439L144.682 19.8566L144.584 19.9371L144.422 20.0015L144.227 20.0337L144 20.0821H143.853H143.707H143.545H143.35H143.106H142.911H142.732L142.554 20.0498L142.294 20.0176L142.083 19.9693L142.018 19.9371L141.953 19.8888L141.888 19.8566L141.855 19.8244L141.807 19.7117V19.5989V5.12117V5.05675L141.823 4.99233L141.839 4.96012L141.888 4.8957L141.937 4.8635L141.985 4.83129L142.066 4.79908L142.148 4.75077L142.375 4.70245L142.668 4.67025H142.83L143.009 4.63804H143.22H143.463H143.691H143.902L144.081 4.67025H144.259L144.552 4.70245L144.779 4.75077L144.844 4.79908L144.925 4.83129L145.007 4.8635L145.039 4.8957L145.072 4.96012L145.088 4.99233L145.104 5.05675V5.12117V13.2377V13.4149V13.6242V13.8175L145.088 14.0429V14.2362V14.4456L145.072 14.6549L145.055 14.8643H145.088L145.202 14.671L145.332 14.4617L145.494 14.2362L145.624 13.9946L145.803 13.7531L145.965 13.5276L146.128 13.2699L146.322 13.0284L152.008 5.10506L152.105 4.99233L152.187 4.8796L152.3 4.79908L152.463 4.75077L152.641 4.70245L152.885 4.67025L153.031 4.63804H153.161H153.324H153.535H153.762H153.973L154.152 4.67025H154.298L154.574 4.70245L154.769 4.75077L154.851 4.79908L154.932 4.83129L154.964 4.8635L155.013 4.8957L155.046 4.96012L155.062 5.00843L155.094 5.05675V5.12117V19.615ZM139.354 19.5989L139.321 19.6794V19.7278L139.289 19.7761L139.256 19.8244L139.224 19.8566L139.159 19.9049L139.078 19.9371L138.996 19.9693L138.736 20.0176L138.477 20.0498L138.282 20.0821H138.07H137.859H137.616H137.356H137.112H136.917L136.722 20.0498L136.43 20.0176L136.202 19.9693L136.105 19.9371L136.024 19.8888L135.942 19.8405L135.894 19.7761L135.813 19.6472L135.748 19.5023L134.432 16.1043L134.286 15.7339L134.123 15.4118L133.993 15.1219L133.847 14.8482L133.701 14.6066L133.538 14.3972L133.36 14.204L133.181 14.0429L132.986 13.8819L132.791 13.7531L132.58 13.6725L132.336 13.6081L132.093 13.5437L131.849 13.4954L131.589 13.4793H131.28H130.549V19.5989V19.6472L130.533 19.7117L130.517 19.76L130.468 19.8244L130.436 19.8566L130.387 19.8888L130.306 19.9371L130.208 19.9693L129.997 20.0337L129.721 20.0659L129.526 20.0821H129.331L129.136 20.0982H128.893H128.665L128.454 20.0821H128.275L128.113 20.0659L127.804 20.0337L127.593 19.9693L127.414 19.8888L127.317 19.8244L127.268 19.76L127.252 19.7117L127.236 19.6472V19.5989V5.12117V5.05675L127.252 5.00843L127.268 4.96012L127.317 4.8957L127.366 4.8635L127.414 4.83129L127.496 4.79908L127.593 4.75077L127.804 4.70245L128.113 4.67025H128.275L128.454 4.65414H128.665H128.893H129.136H129.331L129.526 4.67025H129.721L129.997 4.70245L130.208 4.75077L130.306 4.79908L130.387 4.83129L130.436 4.8635L130.468 4.8957L130.517 4.96012L130.533 5.00843L130.549 5.05675V5.12117V10.8704H131.28H131.557L131.816 10.8221L132.076 10.7899L132.304 10.7416L132.515 10.6449L132.71 10.5644L132.905 10.4356L133.067 10.2745L133.246 10.1135L133.408 9.93635L133.571 9.71089L133.717 9.48543L133.847 9.21166L133.993 8.93788L134.123 8.59969L134.253 8.27761L135.358 5.21779L135.406 5.05675L135.504 4.92791L135.569 4.8796L135.618 4.84739L135.699 4.79908L135.78 4.75077L136.007 4.70245L136.3 4.67025H136.495L136.69 4.63804H136.917H137.177H137.404H137.616L137.811 4.67025H137.989L138.265 4.70245L138.477 4.75077L138.574 4.76687L138.639 4.79908L138.688 4.84739L138.736 4.8796L138.769 4.92791L138.785 4.99233L138.801 5.05675V5.12117L138.785 5.28221L138.736 5.49156L138.704 5.60429L138.671 5.73313L138.607 5.91028L138.542 6.07132L137.453 8.80905L137.307 9.17945L137.145 9.50153L136.982 9.82362L136.836 10.0974L136.69 10.3551L136.527 10.5966L136.381 10.8221L136.202 10.9992L136.04 11.1764L135.861 11.3374L135.666 11.4663L135.504 11.5951L135.309 11.7239L135.098 11.8206L134.887 11.9172L134.675 11.9977L134.919 12.1104L135.147 12.2232L135.374 12.3359L135.585 12.4647L135.78 12.5936L135.991 12.7546L136.17 12.9156L136.365 13.1089L136.527 13.3344L136.706 13.5437L136.868 13.8014L137.047 14.059L137.21 14.365L137.372 14.7032L137.534 15.0575L137.713 15.4762L139.045 18.6327L139.143 18.842L139.224 19.0514L139.273 19.1963L139.289 19.2929L139.321 19.4701L139.354 19.5989ZM124.848 17.6986V17.9724L124.832 18.1979L124.799 18.375L124.767 18.5521L124.718 18.6971L124.653 18.8098L124.588 18.9225L124.458 19.0514L124.393 19.1158L124.263 19.2124L124.101 19.2929L123.922 19.3896L123.727 19.5023L123.467 19.615L123.24 19.7117L122.947 19.8244L122.655 19.9049L122.346 19.9854L121.989 20.0498L121.648 20.1304L121.242 20.1787L120.868 20.2431L120.446 20.2592H120.056H119.633L119.211 20.2431L118.837 20.2109L118.448 20.1465L118.074 20.0821L117.717 19.9854L117.359 19.8888L117.018 19.7761L116.677 19.6472L116.368 19.5023L116.043 19.3413L115.751 19.1641L115.491 19.0031L115.231 18.7937L114.955 18.5682L114.711 18.3267L114.484 18.0851L114.273 17.8275L114.078 17.5376L113.883 17.2477L113.704 16.9417L113.542 16.6035L113.379 16.2814L113.25 15.9271L113.152 15.5567L113.038 15.1863L112.957 14.7676L112.892 14.365L112.827 13.9302L112.795 13.4954L112.762 13.0284V12.5775V12.0782L112.795 11.6273L112.827 11.1442L112.892 10.7255L112.973 10.2906L113.071 9.87193L113.185 9.48543L113.314 9.09893L113.461 8.72853L113.607 8.37423L113.786 8.05215L113.98 7.71396L114.175 7.39187L114.387 7.10199L114.63 6.82822L114.858 6.55445L115.118 6.31288L115.394 6.07132L115.654 5.86196L115.962 5.65261L116.271 5.47546L116.58 5.28221L116.921 5.13727L117.262 4.99233L117.603 4.8635L117.977 4.75077L118.35 4.67025L118.708 4.58972L119.114 4.54141L119.52 4.4931L119.926 4.46089H120.316H120.673L120.998 4.47699L121.323 4.52531L121.648 4.57362L121.956 4.62193L122.265 4.67025L122.557 4.76687L122.817 4.84739L123.077 4.92791L123.321 5.02454L123.564 5.13727L123.792 5.25L123.971 5.36273L124.133 5.45936L124.263 5.53988L124.393 5.6365L124.523 5.76534L124.604 5.89417L124.685 6.02301L124.718 6.16794L124.75 6.34509L124.783 6.55445L124.799 6.68328V6.81212V6.95705V7.10199V7.27914V7.44018L124.783 7.56902V7.71396L124.734 7.95552L124.685 8.11656L124.604 8.2454L124.523 8.32592L124.474 8.37423H124.442L124.393 8.40644H124.328H124.214L124.101 8.37423L123.987 8.29371L123.857 8.19709L123.694 8.10046L123.516 7.98773L123.305 7.875L123.077 7.74616L122.85 7.61733L122.59 7.5046L122.314 7.39187L121.989 7.27914L121.664 7.19862L121.29 7.1181L120.917 7.08589H120.478H120.251L119.991 7.10199L119.78 7.1181L119.552 7.18251L119.357 7.21472L119.13 7.29525L118.935 7.35966L118.74 7.44018L118.545 7.53681L118.383 7.64954L118.204 7.77837L118.042 7.92331L117.863 8.05215L117.717 8.18098L117.57 8.34202L117.457 8.50307L117.327 8.68021L117.181 8.88957L117.067 9.06672L116.969 9.25997L116.872 9.48543L116.774 9.71089L116.709 9.95245L116.628 10.1779L116.563 10.4356L116.498 10.6933L116.466 10.9509L116.401 11.2247L116.385 11.4985L116.368 11.8044L116.352 12.0943V12.4164V12.7385L116.368 13.0445L116.385 13.3666L116.433 13.6564L116.466 13.9463L116.515 14.2201L116.58 14.4778L116.645 14.7354L116.709 14.977L116.807 15.2186L116.904 15.444L117.002 15.6373L117.116 15.8305L117.246 16.0238L117.359 16.2009L117.505 16.3781L117.619 16.5069L117.782 16.6518L117.912 16.7807L118.09 16.9095L118.253 17.0383L118.448 17.135L118.626 17.2316L118.805 17.3282L119.016 17.3765L119.227 17.4409L119.422 17.5054L119.65 17.5376L119.861 17.5698L120.088 17.602L120.316 17.6181H120.576H120.998L121.388 17.5698L121.761 17.5215L122.086 17.4409L122.395 17.3282L122.687 17.2316L122.963 17.1189L123.191 16.99L123.418 16.8773L123.629 16.7807L123.792 16.6518L123.954 16.5713L124.084 16.4908L124.214 16.4264L124.328 16.4103L124.425 16.3942H124.523L124.604 16.4264L124.685 16.4908L124.734 16.6196L124.799 16.7807L124.815 17.0061L124.832 17.1672V17.3121L124.848 17.4893V17.6986ZM112.259 5.9908V6.15184V6.29678L112.242 6.44172L112.226 6.57055L112.177 6.77991L112.129 6.95705L112.047 7.08589L111.966 7.18251L111.918 7.21472L111.869 7.23083L111.836 7.24693H111.771H107.662V19.5989V19.6472L107.645 19.7117L107.629 19.7439L107.597 19.8083L107.532 19.8566L107.483 19.8888L107.402 19.9371L107.304 19.9532L107.109 20.0015L106.817 20.0498L106.654 20.0821H106.443H106.248H106.005H105.777H105.566H105.371L105.209 20.0498L104.933 20.0015L104.705 19.9532L104.608 19.9371L104.543 19.8888L104.478 19.8566L104.445 19.8083L104.396 19.7439L104.38 19.7117L104.364 19.6472L104.348 19.5989V7.24693H100.238H100.189L100.141 7.23083L100.076 7.21472L100.043 7.18251L99.9619 7.08589L99.8806 6.95705L99.8319 6.77991L99.7832 6.57055V6.44172L99.7669 6.29678V6.15184V5.9908V5.81365V5.65261L99.7832 5.50767V5.37883L99.8319 5.15337L99.8806 4.99233L99.9619 4.8635L100.043 4.76687L100.076 4.75077L100.141 4.71856H100.189H100.238H111.771H111.869L111.966 4.76687L112.047 4.8635L112.129 4.99233L112.177 5.15337L112.226 5.37883L112.242 5.50767L112.259 5.65261V5.81365V5.9908ZM95.0074 15.7983L94.7313 16.4264L94.4551 17.0061L94.179 17.5215L93.8866 17.9885L93.6267 18.375L93.3505 18.7615L93.2206 18.9225L93.0744 19.0675L92.9119 19.2124L92.7495 19.3413L92.6033 19.4701L92.4409 19.5828L92.2784 19.6794L92.116 19.76L91.9535 19.8566L91.7586 19.9371L91.6124 19.9854L91.4175 20.0337L91.0439 20.1304L90.6378 20.1787L90.2154 20.2109L89.7443 20.2431H89.5819L89.4195 20.2109H89.257H89.0783L88.9159 20.1626L88.7697 20.1465L88.6235 20.1143L88.4773 20.0821L88.2012 20.0015L87.9575 19.9371L87.7788 19.8405L87.6489 19.7439L87.5676 19.6472L87.4864 19.5506L87.4377 19.454L87.4052 19.2929L87.3565 19.0997L87.3402 18.8742L87.324 18.7454V18.5844V18.4233V18.2301V17.9241L87.3402 17.6503L87.389 17.4409L87.4377 17.2638L87.4864 17.135L87.5676 17.0383L87.6164 17.0061L87.6651 16.99L87.7138 16.9739H87.7463L87.8763 16.99L88.0062 17.0706L88.1524 17.135L88.3474 17.2316L88.5585 17.3121L88.8184 17.4087L88.9484 17.4409L89.0783 17.4732L89.257 17.4893H89.4195L89.6794 17.4732L89.8905 17.4409L90.0205 17.3926L90.118 17.3604L90.2317 17.2799L90.3454 17.2316L90.4428 17.135L90.5565 17.0383L90.6378 16.9095L90.7515 16.7807L90.8327 16.6518L90.9464 16.4747L91.0601 16.2814L91.1738 16.056L85.797 5.79755L85.7158 5.6365L85.6671 5.47546L85.6021 5.34663L85.5859 5.21779V5.10506L85.6021 5.00843L85.6346 4.92791L85.6996 4.84739L85.797 4.79908L85.8945 4.73466L86.0569 4.70245L86.2031 4.67025H86.3981L86.6417 4.63804H86.9016H87.1778H87.4539H87.7138H87.9413L88.1199 4.67025H88.2824L88.4611 4.70245L88.591 4.71856L88.6885 4.75077L88.7859 4.79908L88.8834 4.8635L88.9484 4.92791L89.0296 4.99233L89.1433 5.15337L89.257 5.37883L91.5474 10.0008L91.7261 10.3873L91.9211 10.7577L92.0997 11.112L92.2784 11.4824L92.4409 11.8528L92.6033 12.2393L92.7657 12.6097L92.9119 12.9962H92.9769L93.1069 12.5936L93.2368 12.2071L93.3668 11.8044L93.513 11.4502L93.6592 11.0636L93.8054 10.6933L93.9516 10.2745L94.114 9.87193L96.0146 5.15337L96.0958 5.00843L96.177 4.8796L96.2257 4.84739L96.2907 4.79908L96.3719 4.76687L96.4694 4.73466L96.5831 4.70245L96.713 4.67025H96.8592H97.0217L97.2166 4.63804H97.4278H97.6877H97.9638H98.2237H98.4674L98.6948 4.67025H98.8898L99.0197 4.70245L99.1659 4.71856L99.2796 4.76687L99.3771 4.79908L99.4258 4.8635L99.4908 4.92791L99.507 5.00843V5.08896L99.4745 5.28221L99.3771 5.53988L95.0074 15.7983ZM84.7737 19.5989V19.6794L84.7574 19.7278L84.7249 19.7761L84.6924 19.8244L84.6437 19.8566L84.595 19.9049L84.5138 19.9371L84.4163 19.9693L84.2051 20.0176L83.8965 20.0498L83.7178 20.0821H83.5066H83.2954H83.0518H82.7919H82.5482H82.3533L82.1909 20.0498L81.866 20.0176L81.6386 19.9693L81.5411 19.9371L81.4599 19.8888L81.3949 19.8405L81.3299 19.7761L81.2325 19.6472L81.1837 19.5023L79.8517 16.1043L79.7218 15.7339L79.5918 15.4118L79.4456 15.1219L79.2994 14.8482L79.137 14.6066L78.9583 14.3972L78.7958 14.204L78.6334 14.0429L78.4222 13.8819L78.2111 13.7531L78.0161 13.6725L77.805 13.6081L77.5288 13.5437L77.3014 13.4954L77.0252 13.4793H76.7328H76.0019V19.5989L75.9856 19.6472V19.7117L75.9369 19.76V19.8244L75.8719 19.8566L75.8069 19.8888L75.742 19.9371L75.6445 19.9693L75.4171 20.0337L75.1572 20.0659L74.9947 20.0821H74.7836L74.5724 20.0982H74.3287H74.1175L73.9064 20.0821H73.7114L73.5328 20.0659L73.2404 20.0337L73.013 19.9693L72.8668 19.8888L72.753 19.8244L72.7206 19.76L72.6881 19.7117L72.6556 19.6472V19.5989V5.12117V5.05675L72.6881 5.00843L72.7206 4.96012L72.753 4.8957L72.7855 4.8635L72.8668 4.83129L72.948 4.79908L73.013 4.75077L73.2404 4.70245L73.5328 4.67025H73.7114L73.9064 4.65414H74.1175H74.3287H74.5724H74.7836L74.9947 4.67025H75.1572L75.4171 4.70245L75.6445 4.75077L75.742 4.79908L75.8069 4.83129L75.8719 4.8635L75.9369 4.8957V4.96012L75.9856 5.00843V5.05675L76.0019 5.12117V10.8704H76.7328H77.0252L77.2689 10.8221L77.5288 10.7899L77.74 10.7416L77.9511 10.6449L78.1461 10.5644L78.341 10.4356L78.5197 10.2745L78.6821 10.1135L78.8608 9.93635L79.007 9.71089L79.137 9.48543L79.2669 9.21166L79.4294 8.93788L79.5593 8.59969L79.7055 8.27761L80.7939 5.21779L80.8751 5.05675L80.9401 4.92791L81.005 4.8796L81.0538 4.84739L81.135 4.79908L81.2162 4.75077L81.4599 4.70245L81.736 4.67025H81.9309L82.1259 4.63804H82.3533H82.597H82.8406H83.0518L83.263 4.67025H83.4254L83.7178 4.70245L83.929 4.75077L84.0102 4.76687L84.0914 4.79908L84.1401 4.84739L84.1889 4.8796L84.2051 4.92791L84.2214 4.99233L84.2376 5.05675V5.12117L84.2214 5.28221L84.1889 5.49156L84.1401 5.60429L84.1077 5.73313L84.0589 5.91028L83.9777 6.07132L82.8731 8.80905L82.7431 9.17945L82.5807 9.50153L82.4508 9.82362L82.2721 10.0974L82.1259 10.3551L81.9797 10.5966L81.801 10.8221L81.6386 10.9992L81.4761 11.1764L81.2974 11.3374L81.135 11.4663L80.9401 11.5951L80.7289 11.7239L80.5502 11.8206L80.339 11.9172L80.1116 11.9977L80.3553 12.1104L80.5989 12.2232L80.8101 12.3359L81.005 12.4647L81.2162 12.5936L81.4274 12.7546L81.6061 12.9156L81.801 13.1089L81.9797 13.3344L82.1421 13.5437L82.3208 13.8014L82.4832 14.059L82.6457 14.365L82.8081 14.7032L82.9706 15.0575L83.1655 15.4762L84.4975 18.6327L84.595 18.842L84.66 19.0514L84.6924 19.1963L84.7412 19.2929L84.7574 19.4701L84.7737 19.5989ZM66.6128 9.58205V9.3727L66.5965 9.19555L66.5803 9.0184L66.5478 8.84126L66.5153 8.68021L66.4503 8.53528L66.3854 8.37423L66.3204 8.2454L66.158 8.01994L65.9793 7.79448L65.8981 7.71396L65.7843 7.63343L65.6869 7.56902L65.5894 7.4885L65.362 7.37577L65.1183 7.27914L64.8909 7.21472L64.6473 7.18251L64.3874 7.1342L64.1599 7.1181H63.9L63.6401 7.10199H62.2269V12.2876H63.7213H64.1112L64.4361 12.2554L64.761 12.191L65.0534 12.0943L65.297 11.9816L65.5407 11.8528L65.7519 11.7078L65.9305 11.5468L66.093 11.3535L66.2229 11.1442L66.3529 10.9187L66.4503 10.6933L66.5153 10.4356L66.5803 10.1457L66.6128 9.87193V9.58205ZM70.089 9.35659V9.67868L70.0728 9.98466L70.0403 10.2745L69.9916 10.5644L69.9266 10.8543L69.8616 11.112L69.7641 11.4018L69.6667 11.6273L69.5692 11.885L69.4393 12.1104L69.2768 12.352L69.1306 12.5452L68.9844 12.7385L68.8057 12.9479L68.6108 13.1411L68.4159 13.3021L68.2047 13.4793L67.9935 13.6242L67.7499 13.7853L67.5062 13.9141L67.2463 14.0429L66.9702 14.1396L66.694 14.2684L66.3854 14.3489L66.1092 14.4456L65.7843 14.4939L65.4432 14.5744L65.1021 14.6066L64.7447 14.6549L64.3711 14.671L63.9813 14.7032H63.5914H62.2269V19.5989V19.6472L62.2106 19.7117L62.1944 19.7439L62.1619 19.8083L62.0969 19.8566L62.0482 19.8888L61.967 19.9371L61.8695 19.9532L61.6421 20.0015L61.366 20.0498L61.1873 20.0821H61.0086H60.7974H60.57H60.3426H60.1152H59.9365L59.774 20.0498L59.4654 20.0015L59.238 19.9532L59.1568 19.9371L59.0755 19.8888L59.0268 19.8566L58.9781 19.8083L58.9456 19.7439L58.9293 19.7117L58.9131 19.6472V19.5989V5.81365V5.68482L58.9293 5.55598L58.9456 5.45936L58.9781 5.34663L59.0268 5.2339L59.0755 5.13727L59.1405 5.05675L59.2055 4.99233L59.303 4.92791L59.3679 4.8635L59.4654 4.79908L59.5791 4.76687L59.6766 4.75077L59.774 4.73466L59.904 4.71856H60.0339H63.8838H64.1762H64.4361L64.7285 4.73466L64.9884 4.75077L65.2645 4.76687L65.5569 4.79908L65.8981 4.8635L66.2554 4.92791L66.6128 5.00843L66.9864 5.12117L67.36 5.2661L67.7174 5.44325L68.091 5.6365L68.4321 5.86196L68.5783 5.95859L68.7245 6.08742L68.8707 6.21626L69.0007 6.3773L69.1306 6.49003L69.2606 6.65107L69.3743 6.81212L69.488 6.97316L69.5855 7.1342L69.6667 7.31135L69.7479 7.4885L69.8291 7.66564L69.8616 7.8589L69.9428 8.05215L69.9916 8.2454L70.024 8.45475L70.0728 8.90567L70.089 9.35659ZM55.3394 19.615V19.6794L55.3232 19.7278L55.3069 19.7761L55.2744 19.8244L55.2095 19.8566L55.1607 19.9049L55.0795 19.9371L54.9983 19.9693L54.7709 20.0176L54.4785 20.0498L54.2998 20.0821H54.1211H53.9262H53.6825H53.4551H53.2277H53.049L52.8865 20.0498L52.5779 20.0176L52.3667 19.9693L52.2855 19.9371L52.2205 19.9049L52.1718 19.8566L52.1068 19.8244L52.0906 19.7761L52.0419 19.7278V19.6794V19.615V11.5468V11.3213V11.0798V10.8704V10.6449V10.4356L52.0743 10.2262V10.033L52.0906 9.85583H52.0743L51.9606 10.033L51.8307 10.2423L51.6845 10.4678L51.522 10.6933L51.3759 10.9348L51.1972 11.1925L51.0185 11.4502L50.8398 11.6917L45.1544 19.615L45.0407 19.7439L44.9432 19.8566L44.8295 19.9371L44.6671 20.0015L44.4884 20.0337L44.2609 20.0821H44.131H43.9523H43.7899H43.6112H43.3838H43.1564H42.9777L42.8152 20.0498L42.5553 20.0176L42.3604 19.9693L42.2792 19.9371L42.2142 19.8888L42.1492 19.8566L42.1167 19.8244L42.0842 19.7117L42.0518 19.5989V5.12117V5.05675L42.0842 4.99233V4.96012L42.133 4.8957L42.1817 4.8635L42.2304 4.83129L42.3117 4.79908L42.4091 4.75077L42.6203 4.70245L42.9289 4.67025H43.0914L43.2701 4.63804H43.4812H43.7249H43.9523H44.1635L44.3584 4.67025H44.5209L44.8132 4.70245L45.0244 4.75077L45.1056 4.79908L45.1869 4.83129L45.2518 4.8635L45.2843 4.8957L45.3331 4.96012L45.3493 4.99233L45.3655 5.05675V5.12117V13.2377V13.4149V13.6242V13.8175V14.0429L45.3493 14.2362V14.4456L45.3331 14.6549L45.3168 14.8643H45.3493L45.463 14.671L45.593 14.4617L45.7392 14.2362L45.8854 13.9946L46.0478 13.7531L46.2265 13.5276L46.3889 13.2699L46.5676 13.0284L52.253 5.10506L52.3505 4.99233L52.4317 4.8796L52.5617 4.79908L52.7079 4.75077L52.9028 4.70245L53.1465 4.67025L53.2602 4.63804H53.4226H53.585H53.78H54.0236H54.2186L54.3972 4.67025H54.5759L54.8358 4.70245L55.0308 4.75077L55.112 4.79908L55.177 4.83129L55.2419 4.8635L55.2744 4.8957L55.3069 4.96012L55.3232 5.00843L55.3394 5.05675V5.12117V19.615Z" fill="white"/>
</g>
<defs>
<clipPath id="clip0_5_4">
<rect width="172" height="42" fill="white"/>
</clipPath>
</defs>
</svg>
